HIERARCHY
ROOT SpineBase
{
  OFFSET 0.000000 0.000000 0.000000
  CHANNELS 6 Xposition Yposition Zposition Zrotation Xrotation Yrotation
  JOINT SpineMid
  {
    OFFSET 0.000000 31.198297 0.000000
    CHANNELS 3 Zrotation Xrotation Yrotation
    JOINT SpineShoulder
    {
      OFFSET -0.178257 23.195526 -0.670240
      CHANNELS 3 Zrotation Xrotation Yrotation
      JOINT Neck
      {
        OFFSET -0.118989 7.657296 -0.513369
        CHANNELS 3 Zrotation Xrotation Yrotation
        JOINT Head
        {
          OFFSET -6.389278 10.551353 4.729188
          CHANNELS 3 Zrotation Xrotation Yrotation
          End Site
          {
            OFFSET 0 0 0
          }
        }
      }
      JOINT ShoulderLeft
      {
        OFFSET -25.592361 -2.874439 28.198845
        CHANNELS 3 Zrotation Xrotation Yrotation
        JOINT ElbowLeft
        {
          OFFSET 6.775068 -26.290152 -5.942214
          CHANNELS 3 Zrotation Xrotation Yrotation
          JOINT WristLeft
          {
            OFFSET -4.241710 -19.429061 7.114665
            CHANNELS 3 Zrotation Xrotation Yrotation
            JOINT HandLeft
            {
              OFFSET -0.162765 -7.145653 0.696933
              CHANNELS 3 Zrotation Xrotation Yrotation
              JOINT HandTipLeft
              {
                OFFSET -4.606991 -8.625530 2.232986
                CHANNELS 3 Zrotation Xrotation Yrotation
                End Site
                {
                  OFFSET 0 0 0
                }
              }
              JOINT ThumbLeft
              {
                OFFSET 6.541776 -1.995367 -2.459507
                CHANNELS 3 Zrotation Xrotation Yrotation
                End Site
                {
                  OFFSET 0 0 0
                }
              }
            }
          }
        }
      }
      JOINT ShoulderRight
      {
        OFFSET 2.558179 -4.940246 -15.416935
        CHANNELS 3 Zrotation Xrotation Yrotation
        JOINT ElbowRight
        {
          OFFSET -0.911876 -24.219559 -7.719738
          CHANNELS 3 Zrotation Xrotation Yrotation
          JOINT WristRight
          {
            OFFSET -7.493210 -23.051896 0.928851
            CHANNELS 3 Zrotation Xrotation Yrotation
            JOINT HandRight
            {
              OFFSET -0.032083 -8.119192 1.889626
              CHANNELS 3 Zrotation Xrotation Yrotation
              JOINT HandTipRight
              {
                OFFSET -2.368144 -5.970331 0.489644
                CHANNELS 3 Zrotation Xrotation Yrotation
                End Site
                {
                  OFFSET 0 0 0
                }
              }
              JOINT ThumbRight
              {
                OFFSET 4.040064 -1.122169 -0.475083
                CHANNELS 3 Zrotation Xrotation Yrotation
                End Site
                {
                  OFFSET 0 0 0
                }
              }
            }
          }
        }
      }
    }
  }
  JOINT HipLeft
  {
    OFFSET -4.601376 0.480350 1.593308
    CHANNELS 3 Zrotation Xrotation Yrotation
    JOINT KneeLeft
    {
      OFFSET 5.229588 -34.969835 11.596371
      CHANNELS 3 Zrotation Xrotation Yrotation
      JOINT AnkleLeft
      {
        OFFSET 11.150958 -37.249526 -3.294162
        CHANNELS 3 Zrotation Xrotation Yrotation
        JOINT FootLeft
        {
          OFFSET -3.913720 -6.545392 -3.940216
          CHANNELS 3 Zrotation Xrotation Yrotation
          End Site
          {
            OFFSET 0 0 0
          }
        }
      }
    }
  }
  JOINT HipRight
  {
    OFFSET 3.087556 1.548872 -8.516050
    CHANNELS 3 Zrotation Xrotation Yrotation
    JOINT KneeRight
    {
      OFFSET 5.034868 -34.465690 -3.984275
      CHANNELS 3 Zrotation Xrotation Yrotation
      JOINT AnkleRight
      {
        OFFSET 6.562697 -37.048739 5.398018
        CHANNELS 3 Zrotation Xrotation Yrotation
        JOINT FootRight
        {
          OFFSET -4.422834 -7.181453 -0.229791
          CHANNELS 3 Zrotation Xrotation Yrotation
          End Site
          {
            OFFSET 0 0 0
          }
        }
      }
    }
  }
}
MOTION
Frames: 16
Frame Time: 0.033333
65.145631 81.181527 297.884374 -0.000000 0.000000 52.744260 -0.000000 0.000000 -52.744260 -0.000000 0.000000 0.000000 -0.000000 0.000000 0.000000 0.000000 0.000000 0.000000 -0.000000 0.000000 0.000000 -0.000000 0.000000 0.000000 -0.000000 0.000000 0.000000 -0.000000 0.000000 0.000000 0.000000 0.000000 0.000000 0.000000 0.000000 0.000000 -0.000000 0.000000 0.000000 -0.000000 0.000000 0.000000 -0.000000 0.000000 0.000000 -0.000000 0.000000 0.000000 0.000000 0.000000 0.000000 0.000000 0.000000 0.000000 -0.000000 0.000000 -52.744260 -0.000000 0.000000 0.000000 -0.000000 0.000000 0.000000 0.000000 0.000000 0.000000 -0.000000 0.000000 -52.744260 -0.000000 0.000000 0.000000 -0.000000 0.000000 0.000000 0.000000 0.000000 0.000000
65.122833 81.186331 297.990667 -0.019132 0.024013 53.607152 -0.007979 -0.029648 -53.607150 -0.000000 0.000000 0.000000 -0.000000 0.000000 0.000000 0.000000 0.000000 0.000000 -0.000000 0.000000 0.000000 -0.000000 0.000000 0.000000 -0.000000 0.000000 0.000000 -0.000000 0.000000 0.000000 0.000000 0.000000 0.000000 0.000000 0.000000 0.000000 -0.000000 0.000000 0.000000 -0.000000 0.000000 0.000000 0.278206 -1.118925 0.071724 -0.664944 -0.793397 0.660082 0.000000 0.000000 0.000000 0.000000 0.000000 0.000000 -0.007979 -0.029648 -53.607150 -0.000000 0.000000 0.000000 0.955616 -0.762490 -0.114018 0.000000 0.000000 0.000000 -0.007979 -0.029648 -53.607150 -0.000000 0.000000 0.000000 -0.000000 0.000000 0.000000 0.000000 0.000000 0.000000
65.093137 81.195748 298.085337 -0.043590 0.051298 54.320631 -0.016246 -0.065327 -54.320621 -0.000000 0.000000 0.000000 -0.000000 0.000000 0.000000 0.000000 0.000000 0.000000 -0.000000 0.000000 0.000000 -0.000000 0.000000 0.000000 -0.000000 0.000000 0.000000 -0.000000 0.000000 0.000000 0.000000 0.000000 0.000000 0.000000 0.000000 0.000000 -0.000000 0.000000 0.000000 -0.000000 0.000000 0.000000 0.391043 -2.027471 0.105509 -0.965505 -1.250808 1.161051 0.000000 0.000000 0.000000 0.000000 0.000000 0.000000 -0.016246 -0.065327 -54.320621 -0.000000 0.000000 0.000000 1.501105 -1.810111 0.206015 0.000000 0.000000 0.000000 -0.016246 -0.065327 -54.320621 -0.000000 0.000000 0.000000 -0.154102 1.084322 -0.660676 0.000000 0.000000 0.000000
65.056542 81.209778 298.168382 -0.073386 0.081867 54.895644 -0.024774 -0.107117 -54.895614 -0.000000 0.000000 0.000000 -0.000000 0.000000 0.000000 0.000000 0.000000 0.000000 -0.000000 0.000000 0.000000 -0.000000 0.000000 0.000000 -0.000000 0.000000 0.000000 -0.000000 0.000000 0.000000 0.000000 0.000000 0.000000 0.000000 0.000000 0.000000 -0.000000 0.000000 0.000000 -0.000000 0.000000 0.000000 0.338089 -2.731071 0.097002 -0.925812 -1.406849 1.512273 0.000000 0.000000 0.000000 0.000000 0.000000 0.000000 -0.024774 -0.107117 -54.895614 0.624569 0.579884 0.114961 1.050158 -3.730960 0.836624 0.000000 0.000000 0.000000 -0.024774 -0.107117 -54.895614 -0.000000 0.000000 0.000000 -0.253785 1.591259 -0.966654 0.000000 0.000000 0.000000
65.013048 81.228421 298.239803 -0.108535 0.115734 55.340783 -0.033474 -0.155093 -55.340719 -0.000000 0.000000 0.000000 -0.000000 0.000000 0.000000 0.000000 0.000000 0.000000 -0.000000 0.000000 0.000000 -0.000000 0.000000 0.000000 -0.000000 0.000000 0.000000 -0.000000 0.000000 0.000000 0.000000 0.000000 0.000000 0.000000 0.000000 0.000000 -0.000000 0.000000 0.000000 -0.000000 0.000000 0.000000 0.117493 -3.232846 0.043155 -0.560034 -1.287696 1.720346 0.000000 0.000000 0.000000 0.000000 0.000000 0.000000 -0.033474 -0.155093 -55.340719 0.675595 0.637413 0.127025 0.843185 -5.442798 1.968049 0.000000 0.000000 0.000000 -0.033474 -0.155093 -55.340719 -0.000000 0.000000 0.000000 -0.368881 2.075509 -1.256626 0.000000 0.000000 0.000000
64.962657 81.251676 298.299601 -0.149057 0.152915 55.662528 -0.042189 -0.209335 -55.662406 -0.000000 0.000000 0.000000 -0.000000 0.000000 0.000000 0.000000 0.000000 0.000000 -0.000000 0.000000 0.000000 -0.000000 0.000000 0.000000 -0.000000 0.000000 0.000000 -0.000000 0.000000 0.000000 0.000000 0.000000 0.000000 0.000000 0.000000 0.000000 -0.000000 0.000000 0.000000 -0.000000 0.000000 0.000000 -0.274070 -3.533295 -0.057857 0.126998 -0.910776 1.789359 0.000000 0.000000 0.000000 0.000000 0.000000 0.000000 -0.042189 -0.209335 -55.662406 0.646389 0.625178 0.126189 0.409647 -7.438946 3.524280 0.000000 0.000000 0.000000 -0.042189 -0.209335 -55.662406 -0.000000 0.000000 0.000000 -0.499628 2.537637 -1.530767 0.000000 0.000000 0.000000
64.904551 81.285803 298.375072 -0.199927 0.177222 55.900823 -0.034667 -0.264908 -55.900594 -0.000000 0.000000 0.000000 -0.000000 0.000000 0.000000 0.000000 0.000000 0.000000 -0.000000 0.000000 0.000000 -0.000000 0.000000 0.000000 -0.000000 0.000000 0.000000 -0.000000 0.000000 0.000000 0.000000 0.000000 0.000000 0.000000 0.000000 0.000000 0.819433 0.201770 -0.270151 -0.330430 0.519336 0.050437 -1.590637 -4.244720 -0.078806 1.776793 -0.667864 1.908957 0.000000 0.000000 0.000000 0.000000 0.000000 0.000000 -0.034667 -0.264908 -55.900594 -0.000000 0.000000 0.000000 1.143191 -14.321853 8.763151 0.000000 0.000000 0.000000 -0.144628 -1.083415 -56.053416 -0.617611 0.548280 0.154484 -0.367469 2.834534 -1.720319 0.000000 0.000000 0.000000
64.841517 81.324296 298.417410 -0.254363 0.216802 56.068452 -0.037894 -0.332065 -56.068081 -0.000000 0.000000 0.000000 -0.000000 0.000000 0.000000 0.000000 0.000000 0.000000 -0.000000 0.000000 0.000000 -0.000000 0.000000 0.000000 -0.000000 0.000000 0.000000 -0.000000 0.000000 0.000000 0.000000 0.000000 0.000000 0.000000 0.000000 0.000000 0.853832 0.281208 -0.284695 -0.361181 0.501940 0.043945 -2.100619 -4.176546 -0.198550 1.658177 0.840983 1.326202 0.000000 0.000000 0.000000 0.000000 0.000000 0.000000 -0.037894 -0.332065 -56.068081 -0.000000 0.000000 0.000000 1.132708 -18.628238 11.953358 0.000000 0.000000 0.000000 -0.351017 -1.202802 -56.244553 -0.549975 0.744146 0.175850 -0.512738 3.175663 -1.918505 0.000000 0.000000 0.000000
64.775124 81.368025 298.436383 -0.308256 0.270431 55.908826 -0.051174 -0.406860 -55.908281 -0.000000 0.000000 0.000000 -0.000000 0.000000 0.000000 0.000000 0.000000 0.000000 -0.000000 0.000000 0.000000 -0.000000 0.000000 0.000000 -0.000000 0.000000 0.000000 -0.000000 0.000000 0.000000 0.000000 0.000000 0.000000 0.000000 0.000000 0.000000 0.809414 0.325362 -0.272370 -0.339616 0.514978 0.011912 -2.795591 -3.887789 -0.373101 3.707124 1.950739 0.964456 0.000000 0.000000 0.000000 0.000000 0.000000 0.000000 -0.051174 -0.406860 -55.908281 -0.000000 0.000000 0.000000 -0.934723 -21.473393 14.933520 0.000000 0.000000 0.000000 -0.667081 -1.195324 -56.091643 -0.310759 0.950987 0.177330 -1.065674 3.736760 -2.218008 0.000000 0.000000 0.000000
64.717756 81.407967 298.409826 -0.351918 0.360978 55.569921 -0.098764 -0.494364 -55.569238 -0.000000 0.000000 0.000000 -0.000000 0.000000 0.000000 0.000000 0.000000 0.000000 -0.000000 0.000000 0.000000 -0.000000 0.000000 0.000000 -0.000000 0.000000 0.000000 -0.000000 0.000000 0.000000 0.000000 0.000000 0.000000 0.000000 0.000000 0.000000 0.731062 0.338091 -0.247734 -0.383385 0.548949 -0.032362 -3.649194 -3.386654 -0.607965 5.027344 2.608332 0.725474 0.000000 0.000000 0.000000 0.000000 0.000000 0.000000 -1.416634 -0.716928 -55.949702 -0.082566 1.805118 0.611089 -3.983742 -22.561590 16.291381 0.000000 0.000000 0.000000 -1.109033 -1.115948 -55.749966 0.722768 1.732763 0.343129 -2.481390 3.902102 -2.792303 0.000000 0.000000 0.000000
64.699058 81.431712 298.365995 -0.389470 0.476064 54.967482 -0.166239 -0.592187 -54.966723 -0.000000 0.000000 0.000000 -0.000000 0.000000 0.000000 0.000000 0.000000 0.000000 -0.000000 0.000000 0.000000 -0.000000 0.000000 0.000000 -0.000000 0.000000 0.000000 -0.000000 0.000000 0.000000 0.000000 0.000000 0.000000 0.000000 0.000000 0.000000 0.694798 0.350902 -0.236624 -0.653018 0.579133 -0.069271 -4.689748 -3.062120 -0.932211 5.985530 3.909041 0.349746 0.000000 0.000000 0.000000 0.000000 0.000000 0.000000 -2.731350 -1.295359 -55.676531 -0.701940 3.083296 1.040246 -6.896598 -25.211769 19.290730 0.000000 0.000000 0.000000 -1.618104 -0.929832 -55.123930 1.696396 1.971326 0.367777 -4.017852 4.647287 -3.242604 0.000000 0.000000 0.000000
64.566772 81.443640 298.178254 -0.475828 0.701970 54.352980 -0.293128 -0.795767 -54.352101 -0.000000 0.000000 0.000000 0.465982 -0.465056 -0.488261 0.000000 0.000000 0.000000 -0.000000 0.000000 0.000000 -0.000000 0.000000 0.000000 -0.000000 0.000000 0.000000 -0.000000 0.000000 0.000000 0.000000 0.000000 0.000000 0.000000 0.000000 0.000000 -0.000000 0.000000 0.000000 -0.025358 0.837956 -0.273286 -5.949182 -2.156718 -1.266885 7.909439 3.441367 0.608049 0.000000 0.000000 0.000000 0.000000 0.000000 0.000000 -3.744465 -1.780254 -55.328715 -0.713839 5.773523 1.899072 -8.616038 -39.902077 28.290141 0.000000 0.000000 0.000000 -2.274504 -1.082244 -54.538143 2.608808 2.405520 0.433773 -5.737951 5.501012 -3.733744 0.000000 0.000000 0.000000
64.330733 81.449438 297.884078 -0.574603 0.982154 53.978545 -0.456453 -1.042323 -53.977772 -0.000000 0.000000 0.000000 0.604016 -0.431646 -0.529033 0.000000 0.000000 0.000000 -0.000000 0.000000 0.000000 -0.000000 0.000000 0.000000 -0.000000 0.000000 0.000000 -0.000000 0.000000 0.000000 0.000000 0.000000 0.000000 0.000000 0.000000 0.000000 -0.000000 0.000000 0.000000 -0.534769 0.989818 -0.338289 -5.845694 -2.210784 -1.310731 6.740855 4.689357 0.098886 0.000000 0.000000 0.000000 0.000000 0.000000 0.000000 -4.424292 -2.035099 -55.148668 -0.428740 7.227362 2.391026 -2.130021 -49.031381 35.198324 0.000000 0.000000 0.000000 -2.993756 -1.477218 -54.239856 3.391620 2.972322 0.523392 -7.172753 6.190117 -4.138480 0.000000 0.000000 0.000000
64.093061 81.693634 297.401266 -0.701045 1.369218 53.713551 -0.397724 -0.300379 -53.722556 0.694500 -0.870694 0.018649 0.667783 -0.431171 -0.556858 0.000000 0.000000 0.000000 -0.000000 0.000000 0.000000 -0.000000 0.000000 0.000000 -0.000000 0.000000 0.000000 -0.026835 0.757635 -0.412089 0.000000 0.000000 0.000000 0.000000 0.000000 0.000000 -0.000000 0.000000 0.000000 -1.272870 1.237460 -0.438412 -4.925210 -2.617896 -1.180420 4.065854 3.961838 0.299606 0.000000 0.000000 0.000000 0.000000 0.000000 0.000000 -4.689138 -1.839556 -55.000300 0.330297 6.988590 2.438784 -6.617706 -46.675385 32.595602 0.000000 0.000000 0.000000 -3.855510 -2.124063 -54.102660 4.023806 3.680126 0.618423 -8.084278 6.529666 -4.363564 0.000000 0.000000 0.000000
63.593690 81.726237 296.962237 -0.800549 1.603070 53.384260 -0.378796 -0.316189 -53.390952 0.162349 -0.391920 -0.016489 0.113309 -1.608671 -0.294423 0.000000 0.000000 0.000000 0.610739 -0.718181 0.033597 -1.721631 -1.313720 -0.360706 -3.280711 3.765960 0.000780 4.997622 -2.427790 0.648311 0.000000 0.000000 0.000000 0.000000 0.000000 0.000000 -0.297445 -0.497200 0.304799 -0.847093 1.285337 -0.819864 -5.094474 -3.482753 -1.306791 3.107767 4.382828 0.452620 0.000000 0.000000 0.000000 0.000000 0.000000 0.000000 -4.023317 -1.224738 -54.546576 1.887920 5.272213 1.937308 -15.252556 -40.864090 28.864116 0.000000 0.000000 0.000000 -4.324145 -2.913997 -53.931876 4.196447 4.235643 0.728321 -8.989292 6.807410 -4.465720 0.000000 0.000000 0.000000
62.903273 81.479802 296.602996 -0.856565 1.676863 52.721016 -0.321792 -0.328838 -52.725266 0.207019 -0.410745 -0.012933 -1.873322 -2.634276 -0.047155 0.000000 0.000000 0.000000 0.583176 -0.810599 0.030610 -1.307382 -0.917628 -0.287339 -2.336472 1.543469 -0.024413 3.639404 -0.614873 0.388696 0.000000 0.000000 0.000000 0.000000 0.000000 0.000000 -0.902238 -0.655619 0.478746 -0.810817 1.604774 -1.095592 -4.468245 -4.482580 -1.242133 2.644437 7.099459 -0.270530 0.000000 0.000000 0.000000 0.000000 0.000000 0.000000 -2.678648 -0.353413 -53.583474 3.625464 2.124829 1.070761 -16.149909 -26.509123 21.124978 0.000000 0.000000 0.000000 -4.160958 -3.720365 -53.401418 3.851663 4.366220 0.843279 -9.126748 6.924889 -4.455425 0.000000 0.000000 0.000000
